# xmcd
#
# Track frame offsets: 
#        150
#        17213
#        33108
#        54065
#        71903
#        92220
#
# Disc length: 1468 seconds
#
# Revision: 0
# Processed by: cddbd v1.5.2PL0 Copyright (c) Steve Scherf et al.
# Submitted via: ExactAudioCopy v0.99pb4
#
DISCID=4505ba06
DTITLE=High Voltage - Written In Stone
DYEAR=1992
DGENRE=Hard Rock
TTITLE0=Troubled Eyes
TTITLE1=King's Soul
TTITLE2=Written In Stone
TTITLE3=It's Raining
TTITLE4=The 7th Day
TTITLE5=Fall From Grace
EXTD=
EXTT0=
EXTT1=
EXTT2=
EXTT3=
EXTT4=
EXTT5=
PLAYORDER=
